<svg version="1.0" xmlns="http://www.w3.org/2000/svg"
 width="500.000000pt" height="500.000000pt" viewBox="0 0 500.000000 500.000000"
 preserveAspectRatio="xMidYMid meet">
<g transform="translate(0.000000,500.000000) scale(0.100000,-0.100000)"
fill="#000000" stroke="none">
<path d="M1890 2820 l0 -260 -245 0 -245 0 0 -90 0 -90 120 0 120 0 0 -32 c0
-50 -39 -108 -94 -143 -40 -24 -62 -30 -121 -33 -61 -4 -79 0 -122 22 -120 60
-187 212 -162 369 41 260 300 361 471 184 l43 -45 77 86 78 87 -33 33 c-144
149 -407 191 -605 97 -141 -67 -252 -214 -287 -380 -67 -318 130 -626 433
-677 148 -25 324 27 432 128 57 53 83 92 116 173 l24 56 0 -172 0 -173 115 0
115 0 1 138 0 137 19 -58 c28 -90 87 -159 167 -199 60 -29 77 -33 148 -32 66
0 89 5 131 26 27 15 56 34 63 42 21 25 31 19 31 -19 l0 -35 110 0 110 0 0 335
0 335 -115 0 -115 0 0 -30 0 -29 -37 25 c-56 38 -136 58 -208 51 -137 -13
-242 -100 -286 -235 l-18 -57 0 363 -1 362 -115 0 -115 0 0 -260z m718 -392
c38 -23 72 -85 72 -133 0 -47 -35 -112 -72 -135 -41 -25 -116 -26 -164 -4 -46
22 -75 72 -75 131 -1 74 23 117 86 151 34 19 114 14 153 -10z"/>
<path d="M3305 2636 c-21 -8 -58 -29 -82 -45 l-43 -31 0 35 0 35 -115 0 -115
0 0 -335 0 -335 115 0 115 0 0 208 c0 177 3 212 18 242 34 68 138 72 186 7 20
-26 21 -43 24 -243 l3 -214 115 0 114 0 0 221 0 221 29 29 c28 28 48 34 101
29 81 -7 90 -36 90 -290 l0 -210 115 0 115 0 0 258 c0 288 -5 311 -71 366
-106 90 -252 85 -360 -12 -45 -40 -52 -44 -61 -29 -44 80 -197 128 -293 93z"/>
<path d="M2141 1738 c1 -35 4 -53 6 -40 3 15 11 22 27 22 30 0 48 22 44 52 -2
19 -10 24 -40 26 l-38 3 1 -63z m67 26 c2 -15 -4 -23 -19 -27 -30 -8 -39 -1
-39 29 0 22 4 25 28 22 19 -2 28 -9 30 -24z"/>
<path d="M2352 1743 l-2 -63 38 1 c36 1 36 2 7 8 -28 6 -30 10 -36 61 l-6 55
-1 -62z"/>
<path d="M2576 1792 c-17 -28 -44 -112 -36 -112 6 0 10 7 10 15 0 22 66 20 74
-1 4 -9 9 -15 12 -12 6 7 -39 118 -48 118 -4 0 -9 -4 -12 -8z m34 -64 c0 -5
-11 -8 -24 -8 -24 0 -24 2 -14 31 l11 32 13 -24 c7 -13 13 -27 14 -31z"/>
<path d="M2760 1740 c0 -71 18 -81 22 -12 l3 47 30 -47 c17 -27 33 -48 38 -48
4 0 6 28 5 63 l-1 62 -6 -49 -6 -49 -33 47 c-18 25 -37 46 -43 46 -5 0 -9 -27
-9 -60z"/>
</g>
</svg>
